<?xml version="1.0" standalone="no"?>
<!DOCTYPE svg PUBLIC "-//W3C//DTD SVG 20010904//EN"
 "http://www.w3.org/TR/2001/REC-SVG-20010904/DTD/svg10.dtd">
<svg version="1.0" xmlns="http://www.w3.org/2000/svg"
 width="800.000000pt" height="800.000000pt" viewBox="0 0 800.000000 800.000000"
 preserveAspectRatio="xMidYMid meet">
<metadata>
Created by potrace 1.14, written by Peter Selinger 2001-2017
</metadata>
<g transform="translate(0.000000,800.000000) scale(0.100000,-0.100000)"
fill="#000000" stroke="none">
<path d="M331 3995 l0 -1865 52 -1 c63 0 2180 0 2223 0 l31 1 0 1865 0 1865
-1153 0 -1153 0 0 -1865z m1427 938 c78 -16 184 -66 272 -128 97 -68 120 -60
145 49 9 41 16 51 37 57 l26 7 -4 -277 c-2 -152 -4 -288 -4 -303 0 -24 -4 -28
-30 -28 -22 0 -30 5 -31 18 -3 67 -40 216 -71 281 -37 77 -142 188 -214 224
-102 52 -262 76 -368 56 -193 -36 -339 -208 -410 -481 -13 -51 -27 -114 -30
-140 -3 -27 -9 -69 -12 -94 -13 -102 -7 -361 12 -457 39 -210 87 -329 171
-435 60 -74 106 -112 183 -149 68 -34 82 -37 175 -39 166 -4 301 43 395 140
98 100 125 160 154 331 26 152 24 145 48 142 12 -2 24 -12 27 -23 3 -10 6
-152 6 -314 l0 -295 -23 -3 c-25 -4 -28 2 -37 71 -8 58 -36 91 -68 81 -12 -3
-49 -23 -82 -44 -172 -109 -275 -143 -440 -143 -394 1 -695 218 -805 579 -52
175 -62 453 -22 631 61 271 210 483 423 602 54 30 150 68 199 78 14 2 43 8 65
12 64 13 241 9 313 -6z"/>
<path d="M2855 3995 l0 -1865 25 -1 c37 0 2253 0 2268 0 9 1 12 381 12 1866
l0 1865 -1152 0 -1153 0 0 -1865z m1255 905 c52 -7 133 -23 179 -36 81 -24
208 -81 236 -107 8 -6 29 -23 47 -36 46 -34 125 -128 164 -197 48 -84 86 -199
100 -304 3 -25 8 -54 10 -65 5 -25 5 -243 0 -270 -2 -11 -7 -42 -10 -68 -11
-72 -12 -76 -40 -160 -91 -271 -302 -465 -587 -542 -113 -30 -197 -39 -359
-38 -162 2 -608 2 -640 1 -44 -1 -50 2 -50 22 0 11 1 20 3 21 1 0 22 3 47 6
71 9 111 26 134 56 21 28 21 32 21 800 0 842 1 823 -57 853 -16 8 -54 18 -86
22 -47 6 -58 11 -60 28 -3 20 0 20 313 21 174 1 318 3 320 5 7 7 226 -1 315
-12z"/>
<path d="M3773 4861 c-55 -14 -79 -36 -94 -88 -21 -74 -18 -1511 3 -1568 26
-68 65 -86 198 -86 67 0 100 3 175 16 177 29 320 141 394 309 21 48 53 165 66
236 19 114 26 385 13 531 -30 329 -156 538 -373 614 -102 36 -304 55 -382 36z"/>
<path d="M5379 5848 c0 -7 -1 -847 -2 -1866 -2 -1846 -2 -1852 18 -1853 11 0
528 0 1149 -1 745 0 1131 3 1135 10 4 7 6 3673 2 3715 -1 4 -518 7 -1151 7
-913 0 -1150 -3 -1151 -12z m905 -941 l273 2 -5 -25 c-4 -21 -10 -24 -47 -24
-49 0 -103 -20 -127 -47 -9 -10 -21 -37 -26 -59 -5 -23 -9 -364 -8 -785 1
-817 -1 -788 61 -819 38 -19 334 -26 415 -9 100 21 176 69 228 145 23 34 58
118 67 161 14 65 34 179 35 191 0 6 12 12 28 12 l27 0 1 -223 c0 -122 3 -250
6 -284 5 -43 3 -63 -5 -65 -7 -2 -48 -3 -92 -1 -91 3 -943 3 -1140 0 -128 -2
-130 -2 -133 21 -2 12 0 22 5 23 4 0 17 2 28 4 11 2 39 7 63 10 54 8 88 41 98
97 10 57 13 1438 3 1507 -5 34 -17 63 -31 78 -23 25 -83 45 -135 45 -28 0 -33
4 -33 23 0 30 5 31 96 25 42 -3 199 -4 348 -3z"/>
</g>
</svg>
